<svg xmlns="http://www.w3.org/2000/svg" viewBox="0 0 200 200" width="200" height="200">
  <rect data-region="background" x="0" y="0" width="200" height="200" fill="#ffffff" stroke="#6b6b6b" stroke-width="1.25" />
  <path data-region="petalA" d="M100 100 Q80.2 80.2 100 18 Q119.8 80.2 100 100 Z M100 100 Q119.8 80.2 182 100 Q119.8 119.8 100 100 Z M100 100 Q119.8 119.8 100 182 Q80.2 119.8 100 100 Z M100 100 Q80.2 119.8 18 100 Q80.2 80.2 100 100 Z" fill="#ffffff" stroke="#6b6b6b" stroke-width="1.25" fill-rule="evenodd" />
  <path data-region="petalB" d="M100 100 Q87.27 87.27 100 46 Q112.73 87.27 100 100 Z M100 100 Q112.73 87.27 154 100 Q112.73 112.73 100 100 Z M100 100 Q112.73 112.73 100 154 Q87.27 112.73 100 100 Z M100 100 Q87.27 112.73 46 100 Q87.27 87.27 100 100 Z" fill="#ffffff" stroke="#6b6b6b" stroke-width="1.25" fill-rule="evenodd" />
  <circle data-region="center" cx="100" cy="100" r="16" fill="#ffffff" stroke="#6b6b6b" stroke-width="1.25" />
</svg>
