<svg xmlns="http://www.w3.org/2000/svg" viewBox="0 0 200 200" width="200" height="200" preserveAspectRatio="xMidYMid meet">
  <rect data-region="background" data-region-id="background" x="0" y="0" width="200" height="200" fill="#ffffff" stroke="#666666" stroke-width="1.5" vector-effect="non-scaling-stroke" />
  <path data-region="region-1" data-region-id="region-1" d="M108.89 0 L192.22 0 L153.33 26.67 L116.67 8.89 L108.89 1.11 Z" fill="#ffffff" stroke="#666666" stroke-width="1.5" stroke-linejoin="round" vector-effect="non-scaling-stroke" />
  <path data-region="region-1" data-region-id="region-1" d="M0 68.89 L46.67 95.56 L43.33 101.11 L0 126.67 L0 70 Z" fill="#ffffff" stroke="#666666" stroke-width="1.5" stroke-linejoin="round" vector-effect="non-scaling-stroke" />
  <path data-region="region-1" data-region-id="region-1" d="M97.78 68.89 L146.67 97.78 L98.89 128.89 L53.33 98.89 L56.67 93.33 L96.67 70 Z" fill="#ffffff" stroke="#666666" stroke-width="1.5" stroke-linejoin="round" vector-effect="non-scaling-stroke" />
  <path data-region="region-1" data-region-id="region-1" d="M196.67 68.89 L198.89 126.67 L163.33 107.78 L150 106.67 L155.56 94.44 L195.56 70 Z" fill="#ffffff" stroke="#666666" stroke-width="1.5" stroke-linejoin="round" vector-effect="non-scaling-stroke" />
  <path data-region="region-1" data-region-id="region-1" d="M46.67 170 L52.22 170 L97.78 198.89 L0 198.89 L45.56 171.11 Z" fill="#ffffff" stroke="#666666" stroke-width="1.5" stroke-linejoin="round" vector-effect="non-scaling-stroke" />
  <path data-region="region-1" data-region-id="region-1" d="M145.56 170 L174.44 181.11 L195.56 198.89 L104.44 198.89 L103.33 194.44 L144.44 171.11 Z" fill="#ffffff" stroke="#666666" stroke-width="1.5" stroke-linejoin="round" vector-effect="non-scaling-stroke" />
  <path data-region="region-2" data-region-id="region-2" d="M101.11 0 L107.78 0 L116.67 10 L150 27.78 L148.89 93.33 L145.56 95.56 L101.11 65.56 L101.11 1.11 Z" fill="#ffffff" stroke="#666666" stroke-width="1.5" stroke-linejoin="round" vector-effect="non-scaling-stroke" />
  <path data-region="region-2" data-region-id="region-2" d="M7.78 13.33 L12.22 13.33 L20 23.33 L38.89 25.56 L45.56 31.11 L48.89 92.22 L38.89 90 L15.56 63.33 L10 63.33 L6.67 55.56 L6.67 46.67 L11.11 43.33 L6.67 14.44 Z" fill="#ffffff" stroke="#666666" stroke-width="1.5" stroke-linejoin="round" vector-effect="non-scaling-stroke" />
  <path data-region="region-2" data-region-id="region-2" d="M153.33 105.56 L198.89 127.78 L198.89 197.78 L195.56 196.67 L174.44 180 L151.11 168.89 L150 110 L153.33 106.67 Z" fill="#ffffff" stroke="#666666" stroke-width="1.5" stroke-linejoin="round" vector-effect="non-scaling-stroke" />
  <path data-region="region-2" data-region-id="region-2" d="M56.67 108.89 L81.11 118.89 L97.78 133.33 L100 171.11 L94.44 175.56 L94.44 183.33 L85.56 185.56 L80 176.67 L74.44 178.89 L53.33 164.44 L52.22 116.67 L55.56 110 Z" fill="#ffffff" stroke="#666666" stroke-width="1.5" stroke-linejoin="round" vector-effect="non-scaling-stroke" />
  <path data-region="region-3" data-region-id="region-3" d="M0 0 L6.67 0 L48.89 28.89 L48.89 52.22 L43.33 27.78 L20 22.22 L12.22 12.22 L7.78 12.22 L4.44 18.89 L10 43.33 L5.56 46.67 L5.56 55.56 L8.89 63.33 L15.56 64.44 L33.33 85.56 L0 67.78 L0 1.11 Z" fill="#ffffff" stroke="#666666" stroke-width="1.5" stroke-linejoin="round" vector-effect="non-scaling-stroke" />
  <path data-region="region-3" data-region-id="region-3" d="M52.22 98.89 L100 130 L100 138.89 L98.89 133.33 L84.44 120 L56.67 107.78 L51.11 116.67 L52.22 164.44 L74.44 180 L80 177.78 L85.56 186.67 L92.22 186.67 L100 172.22 L100 193.33 L93.33 194.44 L51.11 168.89 L51.11 100 Z" fill="#ffffff" stroke="#666666" stroke-width="1.5" stroke-linejoin="round" vector-effect="non-scaling-stroke" />
</svg>
